<svg width="61" height="50" viewBox="0 0 61 50" fill="none" xmlns="http://www.w3.org/2000/svg">
<g filter="url(#filter0_d_1034_3062)">
<rect x="1.4707" y="0.735352" width="57.72" height="47.0583" rx="8.8" fill="white" shape-rendering="crispEdges"/>
<rect x="1.83737" y="1.10202" width="56.9867" height="46.325" rx="8.43333" stroke="#F1F5F9" stroke-width="0.733333" shape-rendering="crispEdges"/>
<path d="M44.9206 27.9017C42.9111 35.9631 34.7436 40.8636 26.6937 38.854C18.6321 36.8445 13.7316 28.6773 15.7412 20.6275C17.7507 12.5661 25.9063 7.6657 33.968 9.67529C42.0179 11.673 46.9302 19.8402 44.9206 27.9017Z" fill="url(#paint0_linear_1034_3062)"/>
<path d="M37.4912 22.3905C37.7849 20.393 36.2692 19.312 34.1777 18.5953L34.8592 15.8811L33.2142 15.4698L32.5562 18.1135C32.1215 18.0078 31.675 17.902 31.2285 17.808L31.8865 15.1526L30.2415 14.7413L29.5717 17.4438C29.2075 17.3615 28.855 17.2793 28.5142 17.197V17.1853L26.2347 16.6213L25.8 18.3838C25.7882 18.3603 27.022 18.6658 26.9985 18.6775C27.6682 18.842 27.7857 19.2885 27.7622 19.641L26.9867 22.7313C27.0337 22.743 27.0925 22.7548 27.163 22.79C27.1042 22.7783 27.0455 22.7665 26.9867 22.743L25.9057 27.067C25.8235 27.2668 25.612 27.5723 25.1537 27.4548C25.1655 27.4783 23.9552 27.161 23.9552 27.161L23.1327 29.0528L25.283 29.5933C25.6825 29.699 26.0702 29.793 26.458 29.8988L25.7765 32.6365L27.4215 33.0477L28.103 30.3335C28.5495 30.451 28.996 30.5685 29.419 30.6743L28.7492 33.3767L30.3942 33.788L31.0757 31.0503C33.8957 31.579 36.0107 31.3675 36.8919 28.8178C37.6087 26.7733 36.8567 25.5865 35.3762 24.811C36.4689 24.5643 37.2797 23.8475 37.4912 22.3905ZM33.7195 27.678C33.2142 29.7225 29.7597 28.618 28.6435 28.336L29.5482 24.7053C30.6645 24.9873 34.2599 25.5395 33.7195 27.678ZM34.2364 22.3553C33.7664 24.2235 30.8995 23.2718 29.9712 23.0368L30.7937 19.7468C31.722 19.9818 34.7182 20.4165 34.2364 22.3553Z" fill="white"/>
</g>
<defs>
<filter id="filter0_d_1034_3062" x="0.000130643" y="6.53214e-05" width="60.6609" height="49.9997" filterUnits="userSpaceOnUse" color-interpolation-filters="sRGB">
<feFlood flood-opacity="0" result="BackgroundImageFix"/>
<feColorMatrix in="SourceAlpha" type="matrix" values="0 0 0 0 0 0 0 0 0 0 0 0 0 0 0 0 0 0 127 0" result="hardAlpha"/>
<feOffset dy="0.733333"/>
<feGaussianBlur stdDeviation="0.733333"/>
<feComposite in2="hardAlpha" operator="out"/>
<feColorMatrix type="matrix" values="0 0 0 0 0 0 0 0 0 0 0 0 0 0 0 0 0 0 0.05 0"/>
<feBlend mode="normal" in2="BackgroundImageFix" result="effect1_dropShadow_1034_3062"/>
<feBlend mode="normal" in="SourceGraphic" in2="effect1_dropShadow_1034_3062" result="shape"/>
</filter>
<linearGradient id="paint0_linear_1034_3062" x1="30.3224" y1="9.21748" x2="30.3224" y2="39.3016" gradientUnits="userSpaceOnUse">
<stop stop-color="#F9AA4B"/>
<stop offset="1" stop-color="#F7931A"/>
</linearGradient>
</defs>
</svg>
