<svg width="46" height="46" viewBox="0 0 46 46" fill="none" xmlns="http://www.w3.org/2000/svg">
<rect width="45.9999" height="45.9999" rx="11.3667" fill="#F9AA4B" fill-opacity="0.1"/>
<path fill-rule="evenodd" clip-rule="evenodd" d="M22.0422 18.2089C22.0422 17.6796 21.6132 17.2506 21.0839 17.2506C20.5546 17.2506 20.1256 17.6796 20.1256 18.2089V18.6881H19.1672C18.638 18.6881 18.2089 19.1171 18.2089 19.6464C18.2089 20.1757 18.638 20.6047 19.1672 20.6047H20.1256V25.3964H19.1672C18.638 25.3964 18.2089 25.8254 18.2089 26.3547C18.2089 26.884 18.638 27.313 19.1672 27.313H20.1256V27.7922C20.1256 28.3215 20.5546 28.7505 21.0839 28.7505C21.6132 28.7505 22.0422 28.3215 22.0422 27.7922V27.313H23.0005V27.7922C23.0005 28.3215 23.4296 28.7505 23.9589 28.7505C24.4882 28.7505 24.9172 28.3215 24.9172 27.7922V27.2786C25.5458 27.1862 26.081 26.9102 26.4797 26.4916C26.9642 25.9828 27.1932 25.3198 27.1932 24.6776C27.1932 24.0916 27.0025 23.4882 26.6009 23.0005C27.0025 22.5129 27.1932 21.9095 27.1932 21.3235C27.1932 20.6813 26.9642 20.0183 26.4797 19.5096C26.081 19.091 25.5458 18.815 24.9172 18.7224V18.2089C24.9172 17.6796 24.4882 17.2506 23.9589 17.2506C23.4296 17.2506 23.0005 17.6796 23.0005 18.2089V18.6881H22.0422V18.2089ZM13.4172 23.0005C13.4172 17.7078 17.7078 13.4172 23.0005 13.4172C28.2932 13.4172 32.5839 17.7078 32.5839 23.0005C32.5839 28.2932 28.2932 32.5839 23.0005 32.5839C17.7078 32.5839 13.4172 28.2932 13.4172 23.0005Z" fill="#F9AA4B"/>
<path fill-rule="evenodd" clip-rule="evenodd" d="M22.0426 22.0416V20.6041H24.4384C24.7995 20.6041 24.9897 20.7232 25.0921 20.8307C25.2065 20.9509 25.277 21.1264 25.277 21.3228C25.277 21.5192 25.2065 21.6947 25.0921 21.8149C24.9897 21.9224 24.7995 22.0416 24.4384 22.0416H22.0426Z" fill="#F9AA4B"/>
<path fill-rule="evenodd" clip-rule="evenodd" d="M24.4384 25.3969C24.7995 25.3969 24.9897 25.2777 25.0921 25.1702C25.2065 25.05 25.277 24.8745 25.277 24.6781C25.277 24.4817 25.2065 24.3062 25.0921 24.186C24.9897 24.0785 24.7995 23.9594 24.4384 23.9594H22.0426V25.3969H24.4384Z" fill="#F9AA4B"/>
</svg>
