<svg width="61" height="50" viewBox="0 0 61 50" fill="none" xmlns="http://www.w3.org/2000/svg">
<g filter="url(#filter0_d_1034_3070)">
<rect x="1.4707" y="0.735352" width="57.72" height="47.0583" rx="8.8" fill="white" shape-rendering="crispEdges"/>
<rect x="1.83737" y="1.10202" width="56.9867" height="46.325" rx="8.43333" stroke="#F1F5F9" stroke-width="0.733333" shape-rendering="crispEdges"/>
<path d="M40.3572 22.3847H42.8639V36.7979H40.3572V22.3847ZM36.5972 26.7713H39.1039V36.7979H36.5972V26.7713ZM32.8372 23.638H35.3439V36.7979H32.8372V23.638ZM29.0772 27.398H31.5839V36.7979H29.0772V27.398ZM25.3172 29.278H27.8239V36.7979H25.3172V29.278ZM21.5573 28.0246H24.0639V36.7979H21.5573V28.0246ZM17.7973 30.5313H20.3039V36.7979H17.7973V30.5313Z" fill="#4CAF50"/>
<path d="M40.4199 14.9273L36.5972 18.75L34.0906 16.2433L27.8239 22.51L24.6906 19.3767L18.1733 25.894L19.9279 27.6486L24.6906 22.886L27.8239 26.0193L34.0906 19.7527L36.5972 22.2593L42.1745 16.682L40.4199 14.9273Z" fill="#388E3C"/>
<path d="M42.8639 14.238H37.2239L42.8639 19.878V14.238Z" fill="#388E3C"/>
</g>
<defs>
<filter id="filter0_d_1034_3070" x="0.000130643" y="6.53214e-05" width="60.6609" height="49.9997" filterUnits="userSpaceOnUse" color-interpolation-filters="sRGB">
<feFlood flood-opacity="0" result="BackgroundImageFix"/>
<feColorMatrix in="SourceAlpha" type="matrix" values="0 0 0 0 0 0 0 0 0 0 0 0 0 0 0 0 0 0 127 0" result="hardAlpha"/>
<feOffset dy="0.733333"/>
<feGaussianBlur stdDeviation="0.733333"/>
<feComposite in2="hardAlpha" operator="out"/>
<feColorMatrix type="matrix" values="0 0 0 0 0 0 0 0 0 0 0 0 0 0 0 0 0 0 0.05 0"/>
<feBlend mode="normal" in2="BackgroundImageFix" result="effect1_dropShadow_1034_3070"/>
<feBlend mode="normal" in="SourceGraphic" in2="effect1_dropShadow_1034_3070" result="shape"/>
</filter>
</defs>
</svg>
