<svg width="46" height="46" viewBox="0 0 46 46" fill="none" xmlns="http://www.w3.org/2000/svg">
<rect width="45.9999" height="45.9999" rx="11.3667" fill="#2563EB" fill-opacity="0.1"/>
<g clip-path="url(#clip0_1034_3281)">
<path d="M28.0862 19.9006C26.1025 19.9006 24.4889 21.5142 24.4889 23.4978C24.4889 25.4815 26.1025 27.0951 28.0862 27.0951C30.0699 27.0951 31.6834 25.4815 31.6834 23.4978C31.6834 21.5142 30.0699 19.9006 28.0862 19.9006Z" fill="#2563EB"/>
<path d="M16.4621 32.1231L13.8517 29.5127L14.2858 29.0786L16.8962 31.689L16.4621 32.1231ZM34.0438 16.2569L29.7507 11.9638C29.1627 11.375 28.1363 11.375 27.5484 11.9638L16.2079 23.3043C15.8138 23.6984 15.6807 24.2927 15.8686 24.8175C16.07 25.3799 16.5892 25.7548 17.2575 25.8195C17.3206 25.8259 17.3482 25.8667 17.3602 25.9003C17.3702 25.9287 17.3802 25.9842 17.3306 26.0338L14.8513 28.5131L17.4617 31.1235L19.7148 28.8704C19.7736 28.8117 19.8419 28.7813 19.9178 28.7813C20.0401 28.7813 20.1928 28.8664 20.2412 29.0539C20.4203 29.7537 20.9986 30.2242 21.6801 30.2242C22.067 30.2242 22.4303 30.0735 22.7041 29.7997L25.4756 27.0278C24.3944 26.226 23.6893 24.9446 23.6893 23.4985C23.6893 21.0744 25.6618 19.1019 28.086 19.1019C29.5321 19.1019 30.8139 19.807 31.6153 20.8881L34.0442 18.4596C34.6513 17.8525 34.6513 16.864 34.0438 16.2569ZM11.8584 31.506C11.627 31.7374 11.4995 32.0452 11.4995 32.3733C11.4995 32.7007 11.627 33.0088 11.8584 33.2403L12.7346 34.1164C12.966 34.3478 13.2741 34.4753 13.6015 34.4753C13.9288 34.4753 14.237 34.3478 14.4684 34.1164L15.8969 32.6879L13.2865 30.0775L11.8584 31.506Z" fill="#2563EB"/>
</g>
<defs>
<clipPath id="clip0_1034_3281">
<rect width="22.7333" height="22.7333" fill="white" transform="translate(11.4995 11.4995) scale(1.01173)"/>
</clipPath>
</defs>
</svg>
