<svg width="30" height="23" viewBox="0 0 30 23" fill="none" xmlns="http://www.w3.org/2000/svg">
<rect x="0.366667" y="0.366667" width="29.267" height="21.7669" rx="10.6333" fill="white" fill-opacity="0.05"/>
<rect x="0.366667" y="0.366667" width="29.267" height="21.7669" rx="10.6333" stroke="white" stroke-width="0.733333"/>
<path d="M15.5702 21.1942C15.8747 21.7215 16.4374 22.0464 17.0464 22.0464C17.6553 22.0464 18.218 21.7215 18.5225 21.1942M9.59913 16.3583C9.37164 16.6077 9.31272 16.9678 9.44888 17.2766C9.58503 17.5854 9.8906 17.7848 10.2281 17.7851H23.8646C24.2021 17.7852 24.5079 17.5862 24.6444 17.2775C24.7809 16.9689 24.7224 16.6088 24.4953 16.3592C23.3618 15.1907 22.1601 13.9489 22.1601 10.1145C22.1601 7.2922 19.8687 5.00083 17.0464 5.00083C14.224 5.00083 11.9327 7.2922 11.9327 10.1145C11.9327 13.9489 10.7301 15.1907 9.59913 16.3583" stroke="#4B5563" stroke-width="1.22222" stroke-linecap="round" stroke-linejoin="round"/>
</svg>
