<svg width="86" height="19" viewBox="0 0 86 19" fill="none" xmlns="http://www.w3.org/2000/svg">
<path d="M5.59266 3.8028C2.2769 3.8028 0 6.23486 0 9.35143C0 12.468 2.2769 14.9001 5.59266 14.9001C8.90841 14.9001 11.1853 12.49 11.1853 9.35143C11.1853 6.21286 8.90841 3.8028 5.59266 3.8028ZM5.59266 12.7552C3.53695 12.7552 2.23288 11.1859 2.23288 9.35143C2.23288 7.51693 3.53695 5.92453 5.59266 5.92453C7.64836 5.92453 8.93042 7.51583 8.93042 9.35143C8.93042 11.187 7.64836 12.7552 5.59266 12.7552Z" fill="black"/>
<path d="M17.9732 3.8028C14.8566 3.8028 12.5566 5.92453 12.5566 9.37344V18.3039H14.7674V9.43947C14.7674 7.16257 16.1596 5.92453 17.9952 5.92453C19.8308 5.92453 21.1789 7.2286 21.1789 9.15225C21.1789 11.0759 19.9188 12.5571 17.5088 12.5571H16.1386L16.8022 14.6569H17.6639C21.1569 14.6569 23.4117 12.2468 23.4117 9.17426C23.4117 6.10171 21.0468 3.8028 17.9732 3.8028Z" fill="black"/>
<path d="M27.1899 4.04555H24.979V14.6564H27.1899V4.04555Z" fill="black"/>
<path d="M26.0858 0C25.3122 0 24.7157 0.552443 24.7157 1.32608C24.7157 2.09972 25.2902 2.65216 26.0858 2.65216C26.8815 2.65216 27.4559 2.09972 27.4559 1.32608C27.4559 0.552443 26.8595 0 26.0858 0Z" fill="black"/>
<path d="M33.8236 3.8028C31.0163 3.8028 29.1146 5.70443 29.1146 8.71095V14.658H31.3255V8.71095C31.3255 6.9865 32.2983 5.92563 33.8236 5.92563C35.3489 5.92563 36.3217 6.9865 36.3217 8.71095V14.658H38.5326V8.71095C38.5326 5.70443 36.631 3.8028 33.8236 3.8028Z" fill="black"/>
<path d="M49.5189 11.1861C50.0493 10.4345 50.4037 9.46165 50.4037 8.4448C50.4037 5.96871 48.37 3.78095 45.3194 3.80296C42.1589 3.80296 39.97 6.21302 39.97 9.19643C39.97 12.1798 42.3349 14.657 45.939 14.657H49.6091L50.2507 12.5573H46.1833C43.5312 12.5573 42.226 10.944 42.226 9.15241C42.226 7.36082 43.464 5.92469 45.3205 5.92469C46.957 5.92469 48.1059 7.16274 48.1059 8.71002C48.1059 9.5717 47.7526 10.3453 47.133 11.1861H49.52H49.5189Z" fill="black"/>
<path d="M57.6766 9.35098L61.7 4.04555H59.1799L56.3274 7.86973L53.4541 4.04555H50.8899L54.9133 9.37299L50.8899 14.6564H53.388L56.2834 10.8763L59.2019 14.6564H61.744L57.6766 9.35098Z" fill="black"/>
</svg>
