<svg width="169" height="50" viewBox="0 0 169 50" fill="none" xmlns="http://www.w3.org/2000/svg">
<path d="M15.2773 10.3877C6.21974 10.3877 0 17.0314 0 25.5449C0 34.0584 6.21974 40.702 15.2773 40.702C24.3349 40.702 30.5546 34.1185 30.5546 25.5449C30.5546 16.9712 24.3349 10.3877 15.2773 10.3877ZM15.2773 34.843C9.6618 34.843 6.0995 30.5562 6.0995 25.5449C6.0995 20.5336 9.6618 16.1836 15.2773 16.1836C20.8928 16.1836 24.395 20.5306 24.395 25.5449C24.395 30.5592 20.8928 34.843 15.2773 34.843Z" fill="black"/>
<path d="M49.0951 10.3877C40.5817 10.3877 34.2988 16.1836 34.2988 25.605V50.0002H40.3382V25.7854C40.3382 19.5656 44.141 16.1836 49.1553 16.1836C54.1695 16.1836 57.8521 19.7459 57.8521 25.0007C57.8521 30.2556 54.41 34.3019 47.8265 34.3019H44.0839L45.8966 40.0377H48.2504C57.792 40.0377 63.9516 33.4541 63.9516 25.0609C63.9516 16.6676 57.4913 10.3877 49.0951 10.3877Z" fill="black"/>
<path d="M74.2737 11.0518H68.2344V40.0374H74.2737V11.0518Z" fill="black"/>
<path d="M71.2573 0C69.144 0 67.5146 1.5091 67.5146 3.62245C67.5146 5.7358 69.0839 7.2449 71.2573 7.2449C73.4308 7.2449 75 5.7358 75 3.62245C75 1.5091 73.3706 0 71.2573 0Z" fill="black"/>
<path d="M92.3917 10.3877C84.723 10.3877 79.5283 15.5824 79.5283 23.7953V40.0407H85.5677V23.7953C85.5677 19.0846 88.2251 16.1866 92.3917 16.1866C96.5582 16.1866 99.2157 19.0846 99.2157 23.7953V40.0407H105.255V23.7953C105.255 15.5824 100.06 10.3877 92.3917 10.3877Z" fill="black"/>
<path d="M135.267 30.5566C136.716 28.5034 137.684 25.8459 137.684 23.0682C137.684 16.3043 132.129 10.328 123.796 10.3881C115.162 10.3881 109.183 16.9717 109.183 25.1215C109.183 33.2712 115.643 40.0381 125.488 40.0381H135.514L137.266 34.3023H126.155C118.911 34.3023 115.345 29.8953 115.345 25.0012C115.345 20.1071 118.727 16.1841 123.799 16.1841C128.269 16.1841 131.407 19.566 131.407 23.7927C131.407 26.1466 130.442 28.2599 128.75 30.5566H135.27H135.267Z" fill="black"/>
<path d="M157.553 25.5446L168.543 11.0518H161.659L153.867 21.4982L146.018 11.0518H139.014L150.004 25.6047L139.014 40.0374H145.838L153.747 29.7111L161.719 40.0374H168.663L157.553 25.5446Z" fill="black"/>
</svg>
