<svg width="49" height="9" viewBox="0 0 49 9" fill="none" xmlns="http://www.w3.org/2000/svg">
<g clip-path="url(#clip0_0_3)">
<rect opacity="0.35" x="31.3497" y="0.368624" width="15.438" height="7.59737" rx="1.58889" stroke="#252631" stroke-width="0.733333"/>
<path opacity="0.4" d="M47.89 2.69677V5.63702C48.4815 5.388 48.8662 4.8087 48.8662 4.1669C48.8662 3.52509 48.4815 2.94579 47.89 2.69677Z" fill="#252631"/>
<rect x="32.4533" y="1.47221" width="13.2311" height="5.39045" rx="0.977778" fill="#252631"/>
<path fill-rule="evenodd" clip-rule="evenodd" d="M20.1764 6.1943C21.1177 5.39877 22.4966 5.39877 23.4379 6.1943C23.4852 6.23709 23.513 6.29794 23.5143 6.36169C23.5155 6.42526 23.4902 6.48647 23.4448 6.53103L21.9706 8.01793C21.9274 8.06143 21.8685 8.08547 21.8071 8.08547C21.7458 8.08547 21.6869 8.06143 21.6437 8.01793L20.1695 6.53103C20.124 6.48631 20.0987 6.4245 20.1 6.36071C20.1015 6.29712 20.1291 6.23696 20.1764 6.1943ZM18.2098 4.21112C20.2379 2.32653 23.3784 2.32644 25.4064 4.21112C25.4521 4.25523 25.4781 4.31604 25.4789 4.37949C25.4795 4.44301 25.4551 4.50471 25.4103 4.54981L24.5578 5.41023C24.4699 5.49796 24.3277 5.49963 24.2377 5.41415C23.5717 4.81174 22.7055 4.4783 21.8071 4.47835C20.9092 4.47873 20.0432 4.81196 19.3776 5.41415C19.2876 5.49951 19.1463 5.49781 19.0585 5.41023L18.2059 4.54981C18.1611 4.50477 18.1358 4.44303 18.1364 4.37949C18.1371 4.31603 18.1641 4.25522 18.2098 4.21112ZM16.2423 2.23382C19.3529 -0.744685 24.2603 -0.744527 27.371 2.23382C27.416 2.27807 27.4421 2.33908 27.4425 2.40218C27.4427 2.46513 27.4174 2.52588 27.373 2.57055L26.5204 3.43097C26.4325 3.51911 26.2895 3.5198 26.2003 3.43293C25.0151 2.30717 23.4424 1.67888 21.8071 1.6788C20.1717 1.6788 18.5984 2.30704 17.413 3.43293C17.324 3.51971 17.1817 3.51895 17.0939 3.43097L16.2403 2.57055C16.1959 2.52574 16.1714 2.46431 16.1718 2.4012C16.1724 2.33828 16.1974 2.27792 16.2423 2.23382Z" fill="#252631"/>
<path fill-rule="evenodd" clip-rule="evenodd" d="M1.46928 5.14687C1.87519 5.14687 2.20432 5.4761 2.2044 5.882V7.35225C2.2044 7.75821 1.87524 8.08738 1.46928 8.08738H0.734148C0.328393 8.08713 0 7.75806 0 7.35225V5.882C8.19853e-05 5.47625 0.328444 5.14711 0.734148 5.14687H1.46928ZM4.9002 3.67662C5.30595 3.67675 5.63517 4.00599 5.63532 4.41174V7.35225C5.63532 7.75813 5.30605 8.08725 4.9002 8.08738H4.16507C3.75911 8.08738 3.42994 7.75821 3.42994 7.35225V4.41174C3.43009 4.00591 3.7592 3.67662 4.16507 3.67662H4.9002ZM8.33014 1.96164C8.73606 1.96164 9.06521 2.29086 9.06526 2.69677V7.35225C9.06526 7.75821 8.7361 8.08738 8.33014 8.08738H7.59501C7.18912 8.08729 6.85988 7.75816 6.85988 7.35225V2.69677C6.85994 2.29091 7.18916 1.96174 7.59501 1.96164H8.33014ZM11.7601 0.246674C12.166 0.246674 12.4952 0.575838 12.4952 0.981801V7.35225C12.4952 7.75821 12.166 8.08738 11.7601 8.08738H11.0259C10.62 8.08738 10.2908 7.75821 10.2908 7.35225V0.981801C10.2908 0.575838 10.62 0.246674 11.0259 0.246674H11.7601Z" fill="#252631"/>
</g>
<defs>
<clipPath id="clip0_0_3">
<rect width="48.885" height="8.31306" fill="white" transform="scale(1.00236)"/>
</clipPath>
</defs>
</svg>
