<svg width="18" height="18" viewBox="0 0 18 18" fill="none" xmlns="http://www.w3.org/2000/svg">
<path fill-rule="evenodd" clip-rule="evenodd" d="M7.2802 1.8057C6.74975 2.27595 6.74975 3.13614 6.74975 4.85654V13.1421C6.74975 14.8625 6.74975 15.7227 7.2802 16.193C7.81065 16.6632 8.62142 16.5218 10.243 16.2389L11.9897 15.9344C13.7856 15.6211 14.6835 15.4645 15.2168 14.8057C15.75 14.1471 15.75 13.1944 15.75 11.2891V6.70961C15.75 4.80427 15.75 3.85161 15.2168 3.1929C14.6835 2.53418 13.7856 2.37757 11.9897 2.06433L10.243 1.75969C8.62142 1.47686 7.81065 1.33544 7.2802 1.8057ZM8.9998 7.62575C9.31046 7.62575 9.56231 7.88931 9.56231 8.21444V9.78422C9.56231 10.1094 9.31046 10.3729 8.9998 10.3729C8.68914 10.3729 8.43729 10.1094 8.43729 9.78422V8.21444C8.43729 7.88931 8.68914 7.62575 8.9998 7.62575Z" fill="#9CA3AF"/>
<path d="M5.6607 3.37488C4.11696 3.37713 3.31227 3.41107 2.79943 3.9239C2.25025 4.47309 2.25025 5.35699 2.25025 7.1248V10.8749C2.25025 12.6427 2.25025 13.5266 2.79943 14.0758C3.31227 14.5886 4.11696 14.6226 5.6607 14.6248C5.62521 14.1573 5.62526 13.6169 5.62533 13.0327V4.96694C5.62526 4.38281 5.62521 3.84236 5.6607 3.37488Z" fill="#9CA3AF"/>
</svg>
