<svg width="81" height="17" viewBox="0 0 81 17" fill="none" xmlns="http://www.w3.org/2000/svg">
<path d="M8.10018 11.6564L10.9015 13.3506C11.4145 13.6611 12.0422 13.2021 11.9072 12.6216L11.1647 9.43561L13.642 7.2891C14.0942 6.89759 13.8512 6.15509 13.2572 6.10784L9.99695 5.83109L8.72119 2.82057C8.49169 2.27382 7.70868 2.27382 7.47918 2.82057L6.20342 5.82434L2.94315 6.10109C2.34915 6.14834 2.10615 6.89084 2.5584 7.28235L5.03567 9.42886L4.29316 12.6149C4.15816 13.1954 4.78592 13.6544 5.29892 13.3439L8.10018 11.6564Z" fill="#F8971E"/>
<path d="M24.298 11.6564L27.0993 13.3506C27.6123 13.6611 28.24 13.2021 28.105 12.6216L27.3625 9.43561L29.8398 7.2891C30.2921 6.89759 30.0491 6.15509 29.4551 6.10784L26.1948 5.83109L24.919 2.82057C24.6895 2.27382 23.9065 2.27382 23.677 2.82057L22.4013 5.82434L19.141 6.10109C18.547 6.14834 18.304 6.89084 18.7562 7.28235L21.2335 9.42886L20.491 12.6149C20.356 13.1954 20.9838 13.6544 21.4968 13.3439L24.298 11.6564Z" fill="#F8971E"/>
<path d="M40.5008 11.6564L43.302 13.3506C43.815 13.6611 44.4428 13.2021 44.3078 12.6216L43.5653 9.43561L46.0426 7.2891C46.4948 6.89759 46.2518 6.15509 45.6578 6.10784L42.3975 5.83109L41.1218 2.82057C40.8923 2.27382 40.1093 2.27382 39.8798 2.82057L38.604 5.82434L35.3437 6.10109C34.7497 6.14834 34.5067 6.89084 34.959 7.28235L37.4363 9.42886L36.6938 12.6149C36.5588 13.1954 37.1865 13.6544 37.6995 13.3439L40.5008 11.6564Z" fill="#F8971E"/>
<path d="M56.7035 11.6564L59.5048 13.3506C60.0178 13.6611 60.6455 13.2021 60.5105 12.6216L59.768 9.43561L62.2453 7.2891C62.6976 6.89759 62.4546 6.15509 61.8605 6.10784L58.6003 5.83109L57.3245 2.82057C57.095 2.27382 56.312 2.27382 56.0825 2.82057L54.8068 5.82434L51.5465 6.10109C50.9525 6.14834 50.7095 6.89084 51.1617 7.28235L53.639 9.42886L52.8965 12.6149C52.7615 13.1954 53.3892 13.6544 53.9023 13.3439L56.7035 11.6564Z" fill="#F8971E"/>
<path d="M72.9014 11.6564L75.7026 13.3506C76.2156 13.6611 76.8434 13.2021 76.7084 12.6216L75.9659 9.43561L78.4431 7.2891C78.8954 6.89759 78.6524 6.15509 78.0584 6.10784L74.7981 5.83109L73.5224 2.82057C73.2929 2.27382 72.5099 2.27382 72.2804 2.82057L71.0046 5.82434L67.7443 6.10109C67.1503 6.14834 66.9073 6.89084 67.3596 7.28235L69.8368 9.42886L69.0943 12.6149C68.9593 13.1954 69.5871 13.6544 70.1001 13.3439L72.9014 11.6564Z" fill="#F8971E"/>
</svg>
