<svg width="62" height="50" viewBox="0 0 62 50" fill="none" xmlns="http://www.w3.org/2000/svg">
<g filter="url(#filter0_d_1034_3043)">
<rect x="1.4707" y="0.735352" width="58.2715" height="47.0583" rx="8.8" fill="white" shape-rendering="crispEdges"/>
<rect x="1.83737" y="1.10202" width="57.5381" height="46.325" rx="8.43333" stroke="#F1F5F9" stroke-width="0.733333" shape-rendering="crispEdges"/>
<path d="M34.3099 32.1683C34.3099 33.4544 35.354 34.4986 36.6401 34.4986C37.9262 34.4986 38.9704 33.4544 38.9704 32.1683C38.9704 30.8822 37.9262 29.838 36.6401 29.838C35.354 29.838 34.3099 30.8822 34.3099 32.1683Z" fill="url(#paint0_radial_1034_3043)"/>
<path d="M34.3099 32.1683C34.3099 33.4544 35.354 34.4986 36.6401 34.4986C37.9262 34.4986 38.9704 33.4544 38.9704 32.1683C38.9704 30.8822 37.9262 29.838 36.6401 29.838C35.354 29.838 34.3099 30.8822 34.3099 32.1683Z" fill="url(#paint1_linear_1034_3043)"/>
<path d="M34.3099 32.1683C34.3099 33.4544 35.354 34.4986 36.6401 34.4986C37.9262 34.4986 38.9704 33.4544 38.9704 32.1683C38.9704 30.8822 37.9262 29.838 36.6401 29.838C35.354 29.838 34.3099 30.8822 34.3099 32.1683Z" fill="url(#paint2_radial_1034_3043)"/>
<path d="M33.2435 18.2218C33.1171 18.4404 32.9081 18.599 32.6635 18.6618L30.9489 19.1036C30.3285 19.2634 29.7927 19.6676 29.4731 20.2315L22.3574 32.5549C21.925 33.2975 22.1788 34.2469 22.9308 34.6793L26.719 36.8695L27.3112 37.2173C28.0537 37.6497 29.0031 37.3959 29.4355 36.6439L36.5513 24.3205C36.8709 23.7659 36.9555 23.0985 36.7863 22.4781L36.322 20.7767C36.2561 20.5344 36.29 20.2758 36.416 20.0586L40.0011 13.8574C40.5087 12.9832 40.2079 11.8552 39.3337 11.3476C38.4595 10.84 37.3315 11.1408 36.8239 12.015L33.2435 18.2218Z" fill="url(#paint3_linear_1034_3043)"/>
<path d="M33.2435 18.2218C33.1171 18.4404 32.9081 18.599 32.6635 18.6618L30.9489 19.1036C30.3285 19.2634 29.7927 19.6676 29.4731 20.2315L22.3574 32.5549C21.925 33.2975 22.1788 34.2469 22.9308 34.6793L26.719 36.8695L27.3112 37.2173C28.0537 37.6497 29.0031 37.3959 29.4355 36.6439L36.5513 24.3205C36.8709 23.7659 36.9555 23.0985 36.7863 22.4781L36.322 20.7767C36.2561 20.5344 36.29 20.2758 36.416 20.0586L40.0011 13.8574C40.5087 12.9832 40.2079 11.8552 39.3337 11.3476C38.4595 10.84 37.3315 11.1408 36.8239 12.015L33.2435 18.2218Z" fill="url(#paint4_linear_1034_3043)"/>
<path d="M33.2435 18.2218C33.1171 18.4404 32.9081 18.599 32.6635 18.6618L30.9489 19.1036C30.3285 19.2634 29.7927 19.6676 29.4731 20.2315L22.3574 32.5549C21.925 33.2975 22.1788 34.2469 22.9308 34.6793L26.719 36.8695L27.3112 37.2173C28.0537 37.6497 29.0031 37.3959 29.4355 36.6439L36.5513 24.3205C36.8709 23.7659 36.9555 23.0985 36.7863 22.4781L36.322 20.7767C36.2561 20.5344 36.29 20.2758 36.416 20.0586L40.0011 13.8574C40.5087 12.9832 40.2079 11.8552 39.3337 11.3476C38.4595 10.84 37.3315 11.1408 36.8239 12.015L33.2435 18.2218Z" fill="url(#paint5_radial_1034_3043)"/>
<path fill-rule="evenodd" clip-rule="evenodd" d="M36.3081 20.7175C36.262 20.4922 36.3001 20.2577 36.4153 20.0586L40.0014 13.8574C40.509 12.9832 40.2082 11.8552 39.334 11.3476C38.4598 10.84 37.3318 11.1408 36.8242 12.015L33.2437 18.2218C33.1338 18.4125 32.9605 18.5585 32.754 18.6345L36.3081 20.7175Z" fill="#61468F"/>
<path fill-rule="evenodd" clip-rule="evenodd" d="M36.3081 20.7175C36.262 20.4922 36.3001 20.2577 36.4153 20.0586L40.0014 13.8574C40.509 12.9832 40.2082 11.8552 39.334 11.3476C38.4598 10.84 37.3318 11.1408 36.8242 12.015L33.2437 18.2218C33.1338 18.4125 32.9605 18.5585 32.754 18.6345L36.3081 20.7175Z" fill="url(#paint6_radial_1034_3043)"/>
<path d="M35.064 30.453L38.9443 32.5163C38.8664 33.0354 38.6149 33.5129 38.2308 33.8708L34.3383 31.8047C34.4205 31.2853 34.6759 30.8089 35.063 30.453H35.064Z" fill="url(#paint7_radial_1034_3043)"/>
<path d="M35.064 30.453L38.9443 32.5163C38.8664 33.0354 38.6149 33.5129 38.2308 33.8708L34.3383 31.8047C34.4205 31.2853 34.6759 30.8089 35.063 30.453H35.064Z" fill="url(#paint8_radial_1034_3043)"/>
</g>
<defs>
<filter id="filter0_d_1034_3043" x="0.000130643" y="6.53214e-05" width="61.2121" height="49.9997" filterUnits="userSpaceOnUse" color-interpolation-filters="sRGB">
<feFlood flood-opacity="0" result="BackgroundImageFix"/>
<feColorMatrix in="SourceAlpha" type="matrix" values="0 0 0 0 0 0 0 0 0 0 0 0 0 0 0 0 0 0 127 0" result="hardAlpha"/>
<feOffset dy="0.733333"/>
<feGaussianBlur stdDeviation="0.733333"/>
<feComposite in2="hardAlpha" operator="out"/>
<feColorMatrix type="matrix" values="0 0 0 0 0 0 0 0 0 0 0 0 0 0 0 0 0 0 0.05 0"/>
<feBlend mode="normal" in2="BackgroundImageFix" result="effect1_dropShadow_1034_3043"/>
<feBlend mode="normal" in="SourceGraphic" in2="effect1_dropShadow_1034_3043" result="shape"/>
</filter>
<radialGradient id="paint0_radial_1034_3043" cx="0" cy="0" r="1" gradientUnits="userSpaceOnUse" gradientTransform="translate(37.8697 31.2227) rotate(146.31) scale(2.8462 2.86416)">
<stop stop-color="#FF636C"/>
<stop offset="1" stop-color="#F83D46"/>
</radialGradient>
<linearGradient id="paint1_linear_1034_3043" x1="35.3232" y1="34.4986" x2="36.1382" y2="32.3431" gradientUnits="userSpaceOnUse">
<stop stop-color="#FE287A"/>
<stop offset="1" stop-color="#FE287A" stop-opacity="0"/>
</linearGradient>
<radialGradient id="paint2_radial_1034_3043" cx="0" cy="0" r="1" gradientUnits="userSpaceOnUse" gradientTransform="translate(34.3099 30.5863) rotate(32.974) scale(3.18151 5.42089)">
<stop stop-color="#E83D41"/>
<stop offset="1" stop-color="#E83D41" stop-opacity="0"/>
</radialGradient>
<linearGradient id="paint3_linear_1034_3043" x1="31.1971" y1="23.9652" x2="29.4675" y2="37.1562" gradientUnits="userSpaceOnUse">
<stop stop-color="#FFC0A7"/>
<stop offset="1" stop-color="#FFC1B8"/>
</linearGradient>
<linearGradient id="paint4_linear_1034_3043" x1="25.5327" y1="36.7868" x2="26.5648" y2="35.1192" gradientUnits="userSpaceOnUse">
<stop offset="0.157" stop-color="#FE86C0"/>
<stop offset="1" stop-color="#FE86C0" stop-opacity="0"/>
</linearGradient>
<radialGradient id="paint5_radial_1034_3043" cx="0" cy="0" r="1" gradientTransform="matrix(1.12042 4.32893 -1.95136 0.50506 36.9536 21.6227)" gradientUnits="userSpaceOnUse">
<stop offset="0.179" stop-color="#FFE2B4"/>
<stop offset="1" stop-color="#FFE2B4" stop-opacity="0"/>
</radialGradient>
<radialGradient id="paint6_radial_1034_3043" cx="0" cy="0" r="1" gradientUnits="userSpaceOnUse" gradientTransform="translate(40.565 12.1292) rotate(153.853) scale(1.79979 2.2567)">
<stop offset="0.064" stop-color="#736AAE"/>
<stop offset="1" stop-color="#736AAE" stop-opacity="0"/>
</radialGradient>
<radialGradient id="paint7_radial_1034_3043" cx="0" cy="0" r="1" gradientTransform="matrix(-0.916722 1.62971 -2.89513 -1.62853 37.9723 31.5537)" gradientUnits="userSpaceOnUse">
<stop stop-color="#FFEEFF"/>
<stop offset="1" stop-color="#F1BFFF"/>
</radialGradient>
<radialGradient id="paint8_radial_1034_3043" cx="0" cy="0" r="1" gradientUnits="userSpaceOnUse" gradientTransform="translate(38.3798 32.801) rotate(-153.593) scale(4.12247 5.55558)">
<stop offset="0.661" stop-color="#CBA2B3" stop-opacity="0"/>
<stop offset="1" stop-color="#CBA2B3"/>
</radialGradient>
</defs>
</svg>
