<svg width="18" height="18" viewBox="0 0 18 18" fill="none" xmlns="http://www.w3.org/2000/svg">
<path d="M1.49917 8.99933C1.49917 5.46372 1.49917 3.69591 2.59754 2.59754C3.69591 1.49917 5.46372 1.49917 8.99933 1.49917C12.5349 1.49917 14.3028 1.49917 15.4011 2.59754C16.4995 3.69591 16.4995 5.46372 16.4995 8.99933C16.4995 12.5349 16.4995 14.3028 15.4011 15.4011C14.3028 16.4995 12.5349 16.4995 8.99933 16.4995C5.46372 16.4995 3.69591 16.4995 2.59754 15.4011C1.49917 14.3028 1.49917 12.5349 1.49917 8.99933Z" fill="#A5AABD"/>
<path d="M10.8749 8.06155C10.5642 8.06155 10.3124 7.80969 10.3124 7.49903C10.3124 7.18837 10.5642 6.93652 10.8749 6.93652H12.7499C13.0606 6.93652 13.3125 7.18837 13.3125 7.49903V9.37408C13.3125 9.68473 13.0606 9.93659 12.7499 9.93659C12.4393 9.93659 12.1874 9.68473 12.1874 9.37408V8.85709L10.678 10.3665C10.1654 10.8791 9.33437 10.8791 8.82181 10.3665L7.63243 9.17712C7.55916 9.10392 7.44047 9.10392 7.36724 9.17712L5.64754 10.8968C5.42787 11.1165 5.0717 11.1165 4.85203 10.8968C4.63235 10.6772 4.63235 10.321 4.85203 10.1014L6.57173 8.38165C7.08431 7.86909 7.91534 7.86909 8.4279 8.38165L9.61728 9.57103C9.69056 9.64423 9.80921 9.64423 9.88248 9.57103L11.3919 8.06155H10.8749Z" fill="white"/>
</svg>
