<svg width="12" height="12" viewBox="0 0 12 12" fill="none" xmlns="http://www.w3.org/2000/svg">
<g clip-path="url(#clip0_1034_3362)">
<path d="M7.50002 8.99975V8.24975H9.96972L6.75003 5.03006L5.14016 6.63989C5.10536 6.67472 5.06403 6.70236 5.01854 6.72122C4.97304 6.74007 4.92428 6.74978 4.87504 6.74978C4.8258 6.74978 4.77703 6.74007 4.73154 6.72122C4.68605 6.70236 4.64472 6.67472 4.60992 6.63989L0.750062 2.78007L1.28035 2.24979L4.87504 5.84448L6.48491 4.23465C6.51971 4.19981 6.56104 4.17218 6.60653 4.15332C6.65202 4.13447 6.70078 4.12476 6.75003 4.12476C6.79927 4.12476 6.84803 4.13447 6.89353 4.15332C6.93902 4.17218 6.98035 4.19981 7.01515 4.23465L10.5 7.71947V5.24977H11.25V8.99975H7.50002Z" fill="#EF4444"/>
</g>
<defs>
<clipPath id="clip0_1034_3362">
<rect width="11.7333" height="11.7333" fill="white" transform="matrix(1.02272 0 0 -1.02272 0 12)"/>
</clipPath>
</defs>
</svg>
