<svg width="12" height="12" viewBox="0 0 12 12" fill="none" xmlns="http://www.w3.org/2000/svg">
<g clip-path="url(#clip0_1034_3293)">
<path d="M7.50102 3.00025V3.75025H9.97072L6.75103 6.96994L5.14116 5.36011C5.10636 5.32528 5.06503 5.29764 5.01954 5.27878C4.97404 5.25993 4.92528 5.25022 4.87604 5.25022C4.82679 5.25022 4.77803 5.25993 4.73254 5.27878C4.68705 5.29764 4.64572 5.32528 4.61091 5.36011L0.751061 9.21993L1.28135 9.75021L4.87604 6.15552L6.4859 7.76535C6.52071 7.80019 6.56204 7.82782 6.60753 7.84668C6.65302 7.86553 6.70178 7.87524 6.75103 7.87524C6.80027 7.87524 6.84903 7.86553 6.89452 7.84668C6.94002 7.82782 6.98135 7.80019 7.01615 7.76535L10.501 4.28053V6.75023H11.251V3.00025H7.50102Z" fill="#2563EB"/>
</g>
<defs>
<clipPath id="clip0_1034_3293">
<rect width="11.7333" height="11.7333" fill="white" transform="scale(1.02272)"/>
</clipPath>
</defs>
</svg>
