<svg width="18" height="18" viewBox="0 0 18 18" fill="none" xmlns="http://www.w3.org/2000/svg">
<path d="M1.50017 9.15226C1.50017 7.43592 1.50017 6.57774 1.88958 5.86632C2.27898 5.15491 2.99041 4.71337 4.41325 3.83032L5.91329 2.89935C7.41734 1.9659 8.16939 1.49917 9.00033 1.49917C9.83128 1.49917 10.5833 1.9659 12.0874 2.89935L13.5874 3.83031C15.0103 4.71337 15.7217 5.15491 16.1111 5.86632C16.5005 6.57774 16.5005 7.43592 16.5005 9.15226V10.2931C16.5005 13.2188 16.5005 14.6817 15.6218 15.5906C14.7431 16.4995 13.3288 16.4995 10.5004 16.4995H7.5003C4.67181 16.4995 3.25757 16.4995 2.37886 15.5906C1.50017 14.6817 1.50017 13.2188 1.50017 10.2931V9.15226Z" fill="#F3BA2F"/>
<path d="M6.75095 12.9382C6.44028 12.9382 6.18844 13.19 6.18844 13.5007C6.18844 13.8114 6.44028 14.0632 6.75095 14.0632H11.251C11.5617 14.0632 11.8136 13.8114 11.8136 13.5007C11.8136 13.19 11.5617 12.9382 11.251 12.9382H6.75095Z" fill="#1C274C"/>
</svg>
