<svg width="10" height="10" viewBox="0 0 10 10" fill="none" xmlns="http://www.w3.org/2000/svg">
<path d="M9.85042 6.20914C9.18238 8.88914 6.4671 10.5183 3.79093 9.85019C1.11085 9.18214 -0.518287 6.46699 0.149799 3.79085C0.817846 1.11085 3.52917 -0.518286 6.20925 0.1498C8.88542 0.81394 10.5185 3.5291 9.85042 6.20914Z" fill="url(#paint0_linear_1034_3119)"/>
<path d="M6.68555 3.88867C6.7832 3.22461 6.2793 2.86523 5.58398 2.62695L5.81055 1.72461L5.26367 1.58789L5.04492 2.4668C4.90039 2.43164 4.75195 2.39648 4.60352 2.36523L4.82227 1.48242L4.27539 1.3457L4.05273 2.24414C3.93164 2.2168 3.81445 2.18945 3.70117 2.16211V2.1582L2.94336 1.9707L2.79883 2.55664C2.79492 2.54883 3.20508 2.65039 3.19727 2.6543C3.41992 2.70898 3.45898 2.85742 3.45117 2.97461L3.19336 4.00195C3.20898 4.00586 3.22852 4.00977 3.25195 4.02148C3.23242 4.01758 3.21289 4.01367 3.19336 4.00586L2.83398 5.44336C2.80664 5.50977 2.73633 5.61133 2.58398 5.57227C2.58789 5.58008 2.18555 5.47461 2.18555 5.47461L1.91211 6.10352L2.62695 6.2832C2.75977 6.31836 2.88867 6.34961 3.01758 6.38477L2.79102 7.29492L3.33789 7.43164L3.56445 6.5293C3.71289 6.56836 3.86133 6.60742 4.00195 6.64258L3.7793 7.54102L4.32617 7.67773L4.55273 6.76758C5.49023 6.94336 6.19336 6.87305 6.48633 6.02539C6.72461 5.3457 6.47461 4.95117 5.98242 4.69336C6.3457 4.61133 6.61523 4.37305 6.68555 3.88867ZM5.43164 5.64648C5.26367 6.32617 4.11523 5.95898 3.74414 5.86523L4.04492 4.6582C4.41602 4.75195 5.61133 4.93555 5.43164 5.64648ZM5.60352 3.87695C5.44727 4.49805 4.49414 4.18164 4.18555 4.10352L4.45898 3.00977C4.76758 3.08789 5.76367 3.23242 5.60352 3.87695Z" fill="white"/>
<defs>
<linearGradient id="paint0_linear_1034_3119" x1="3.66468" y1="-0.00176" x2="3.66468" y2="7.33259" gradientUnits="userSpaceOnUse">
<stop stop-color="#F9AA4B"/>
<stop offset="1" stop-color="#F7931A"/>
</linearGradient>
</defs>
</svg>
