<svg width="12" height="11" viewBox="0 0 12 11" fill="none" xmlns="http://www.w3.org/2000/svg">
<path d="M8.1413 10.614V9.56136C8.1413 8.39945 7.19798 7.45614 6.03607 7.45614H2.87824C1.71633 7.45614 0.773012 8.39945 0.773012 9.56136V10.614M8.1413 1.20783C9.06981 1.44854 9.71821 2.28648 9.71821 3.24569C9.71821 4.2049 9.06981 5.04283 8.1413 5.28354M11.2991 10.614V9.56136C11.2984 8.60197 10.6491 7.7644 9.72021 7.52456" stroke="#A4A4A4" stroke-width="0.733333" stroke-linecap="round" stroke-linejoin="round"/>
<path d="M1.93047 3.26371C1.93047 4.01584 2.33173 4.71083 2.98309 5.08689C3.63444 5.46295 4.43695 5.46295 5.08831 5.08689C5.73967 4.71083 6.14092 4.01584 6.14092 3.26371C6.14092 2.10181 5.1976 1.15849 4.0357 1.15849C2.87379 1.15849 1.93047 2.10181 1.93047 3.26371H1.93047" stroke="#A4A4A4" stroke-width="0.733333" stroke-linecap="round" stroke-linejoin="round"/>
</svg>
