<svg width="9" height="10" viewBox="0 0 9 10" fill="none" xmlns="http://www.w3.org/2000/svg">
<path d="M9.00033 2.80816V2.83877C9.00033 3.19933 9.00033 3.38003 8.91354 3.52761C8.82675 3.67519 8.66869 3.76282 8.35341 3.93849L8.02094 4.12296C8.24985 3.34817 8.32658 2.51552 8.35467 1.80362L8.35886 1.71096L8.3597 1.68916C8.63264 1.78391 8.78609 1.85477 8.88168 1.98725C9.00033 2.15202 9.00033 2.37087 9.00033 2.80816ZM0.615133 2.80816V2.83877C0.615133 3.19933 0.615133 3.38003 0.701919 3.52761C0.788706 3.67519 0.946767 3.76282 1.26205 3.93849L1.59494 4.12296C1.36561 3.34817 1.28888 2.51552 1.26079 1.80362L1.2566 1.71096L1.25618 1.68916C0.982823 1.78391 0.829374 1.85477 0.733783 1.98725C0.615133 2.15202 0.615133 2.37129 0.615133 2.80816Z" fill="#FBBF24"/>
<path fill-rule="evenodd" clip-rule="evenodd" d="M4.47084 0.615228C5.2188 0.615228 5.83469 0.681051 6.30594 0.760711C6.78347 0.841209 7.02203 0.881457 7.2216 1.12714C7.42117 1.37283 7.41027 1.63822 7.3893 2.169C7.31719 3.99236 6.92393 6.26936 4.78528 6.47061V7.95227H5.38482C5.5846 7.95239 5.75654 8.09346 5.7957 8.28936L5.87536 8.68598H6.98639C7.15994 8.68598 7.30084 8.82687 7.30084 9.00042C7.30084 9.17397 7.15994 9.31487 6.98639 9.31487H1.95528C1.78173 9.31487 1.64083 9.17397 1.64083 9.00042C1.64083 8.82687 1.78173 8.68598 1.95528 8.68598H3.06632L3.14598 8.28936C3.18513 8.09346 3.35707 7.95239 3.55685 7.95227H4.15639V6.47061C2.01817 6.26936 1.6249 3.99195 1.55279 2.169C1.53141 1.63822 1.52093 1.37241 1.72049 1.12714C1.91964 0.881457 2.1582 0.841209 2.63574 0.760711C3.24234 0.661345 3.85616 0.612682 4.47084 0.615228ZM4.86997 2.3757L4.82888 2.30191C4.66957 2.01556 4.58991 1.87301 4.47084 1.87301C4.35177 1.87301 4.27211 2.01556 4.11279 2.30191L4.0717 2.3757C4.02642 2.45704 4.00378 2.49728 3.96856 2.52412C3.93293 2.55095 3.8889 2.56101 3.80086 2.58072L3.7212 2.59916C3.41179 2.66918 3.25708 2.70398 3.22019 2.82221C3.18329 2.94044 3.28894 3.06412 3.49983 3.31065L3.55433 3.37438C3.61429 3.44439 3.64448 3.47919 3.65789 3.52279C3.67131 3.5664 3.6667 3.61293 3.65789 3.70643L3.64951 3.79154C3.61764 4.12066 3.60171 4.28543 3.69772 4.35838C3.79415 4.43133 3.93922 4.36467 4.22892 4.23134L4.30355 4.19696C4.38615 4.15923 4.42723 4.14036 4.47084 4.14036C4.51444 4.14036 4.55553 4.15923 4.63812 4.19696L4.71275 4.23134C5.00246 4.36509 5.14752 4.43133 5.24395 4.35838C5.34038 4.28543 5.32403 4.12066 5.29217 3.79154L5.28378 3.70643C5.27498 3.61293 5.27037 3.5664 5.28378 3.52279C5.2972 3.47919 5.32738 3.44439 5.38734 3.37438L5.44184 3.31065C5.65273 3.06412 5.75838 2.94086 5.72149 2.82221C5.68459 2.70398 5.52989 2.66918 5.22047 2.59916L5.14081 2.58072C5.05277 2.56101 5.00875 2.55137 4.97311 2.52412C4.93789 2.49728 4.91525 2.45704 4.86997 2.3757Z" fill="#FBBF24"/>
</svg>
