<svg width="14" height="12" viewBox="0 0 14 12" fill="none" xmlns="http://www.w3.org/2000/svg">
<path d="M13.7842 2.20258C13.5147 1.73942 13.0188 1.4248 12.4444 1.4248H7V2.20258H13.7842ZM0 9.20258H14V9.98036H0V9.20258ZM7 6.09147H14V6.86925H7V6.09147ZM7 4.53592H14V5.31369H7V4.53592ZM0 7.64703H14V8.4248H0V7.64703ZM1.55556 11.5359H12.4444C13.0188 11.5359 13.5147 11.2213 13.7842 10.7581H0.215833C0.485333 11.2213 0.981167 11.5359 1.55556 11.5359ZM7 2.98036H14V3.75814H7V2.98036Z" fill="#B22334"/>
<path d="M0.0264444 10.0379C0.0329259 10.0742 0.0405741 10.1101 0.0493889 10.1456C0.0597593 10.1845 0.0716852 10.2229 0.0851667 10.2608C0.119778 10.3615 0.161778 10.4587 0.214667 10.5497L0.215833 10.5516H13.7842L13.7849 10.5501C13.8376 10.4587 13.8809 10.3621 13.9141 10.2619C13.9393 10.1888 13.9591 10.114 13.9732 10.0379C13.9891 9.95237 14 9.86448 14 9.77387H0C0 9.86448 0.0108889 9.95198 0.0264444 10.0379ZM0 8.21832H14V8.99609H0V8.21832ZM0 6.66276V7.44054H14V6.66276H7H0ZM7 5.1072H14V5.88498H7V5.1072ZM7 3.55165H14V4.32943H7V3.55165ZM0.215833 1.99609L0.214667 1.99804L0.215833 1.99609ZM0.0497778 2.40209C0.0595 2.36243 0.0731111 2.3247 0.0855556 2.28659C0.0721373 2.32462 0.0602023 2.36314 0.0497778 2.40209ZM7 2.77387H14C14 2.68326 13.9891 2.59537 13.9732 2.50943C13.9596 2.43324 13.9397 2.35832 13.9137 2.28543C13.8805 2.18482 13.8371 2.08788 13.7842 1.99609H7V2.77387Z" fill="#EEEEEE"/>
<path d="M7 1.4248H1.55556C0.697021 1.4248 0 2.12183 0 2.98036V6.86925H7V1.4248Z" fill="#3C3B6E"/>
<path d="M0.571289 2.27843L0.811622 2.45304L0.719845 2.73498L0.959789 2.56076L1.20012 2.73498L1.10834 2.45304L1.34868 2.27843H1.05157L0.959789 1.99609L0.8684 2.27843H0.571289ZM1.34907 3.0562L1.5894 3.23082L1.49762 3.51276L1.73757 3.33854L1.9779 3.51276L1.88612 3.23082L2.12646 3.0562H1.82934L1.73757 2.77387L1.64618 3.0562H1.34907ZM2.90462 3.0562L3.14496 3.23082L3.05318 3.51276L3.29312 3.33854L3.53346 3.51276L3.44168 3.23082L3.68201 3.0562H3.3849L3.29312 2.77387L3.20173 3.0562H2.90462ZM4.46018 3.0562L4.70051 3.23082L4.60873 3.51276L4.84868 3.33854L5.08901 3.51276L4.99723 3.23082L5.23757 3.0562H4.94046L4.84868 2.77387L4.75729 3.0562H4.46018ZM1.34907 4.61176L1.5894 4.78637L1.49762 5.06832L1.73757 4.89409L1.9779 5.06832L1.88612 4.78637L2.12646 4.61176H1.82934L1.73757 4.32943L1.64618 4.61176H1.34907ZM2.90462 4.61176L3.14496 4.78637L3.05318 5.06832L3.29312 4.89409L3.53346 5.06832L3.44168 4.78637L3.68201 4.61176H3.3849L3.29312 4.32943L3.20173 4.61176H2.90462ZM4.46018 4.61176L4.70051 4.78637L4.60873 5.06832L4.84868 4.89409L5.08901 5.06832L4.99723 4.78637L5.23757 4.61176H4.94046L4.84868 4.32943L4.75729 4.61176H4.46018ZM2.12684 2.27843L2.36718 2.45304L2.2754 2.73498L2.51534 2.56076L2.75568 2.73498L2.6639 2.45304L2.90423 2.27843H2.60712L2.51534 1.99609L2.42396 2.27843H2.12684ZM3.6824 2.27843L3.92273 2.45304L3.83096 2.73498L4.0709 2.56076L4.31123 2.73498L4.21946 2.45304L4.45979 2.27843H4.16268L4.0709 1.99609L3.97951 2.27843H3.6824ZM5.23796 2.27843L5.47829 2.45304L5.38651 2.73498L5.62646 2.56076L5.86679 2.73498L5.77501 2.45304L6.01534 2.27843H5.71823L5.62646 1.99609L5.53507 2.27843H5.23796ZM0.571289 3.83398L0.811622 4.00859L0.719845 4.29054L0.959789 4.11632L1.20012 4.29054L1.10834 4.00859L1.34868 3.83398H1.05157L0.959789 3.55165L0.8684 3.83398H0.571289ZM2.2754 4.29054L2.51534 4.11632L2.75568 4.29054L2.6639 4.00859L2.90423 3.83398H2.60712L2.51534 3.55165L2.42396 3.83398H2.12684L2.36718 4.00859L2.2754 4.29054ZM3.6824 3.83398L3.92273 4.00859L3.83096 4.29054L4.0709 4.11632L4.31123 4.29054L4.21946 4.00859L4.45979 3.83398H4.16268L4.0709 3.55165L3.97951 3.83398H3.6824ZM5.23796 3.83398L5.47829 4.00859L5.38651 4.29054L5.62646 4.11632L5.86679 4.29054L5.77501 4.00859L6.01534 3.83398H5.71823L5.62646 3.55165L5.53507 3.83398H5.23796ZM0.571289 5.38954L0.811622 5.56415L0.719845 5.84609L0.959789 5.67187L1.20012 5.84609L1.10834 5.56415L1.34868 5.38954H1.05157L0.959789 5.1072L0.8684 5.38954H0.571289ZM2.2754 5.84609L2.51534 5.67187L2.75568 5.84609L2.6639 5.56415L2.90423 5.38954H2.60712L2.51534 5.1072L2.42396 5.38954H2.12684L2.36718 5.56415L2.2754 5.84609ZM3.6824 5.38954L3.92273 5.56415L3.83096 5.84609L4.0709 5.67187L4.31123 5.84609L4.21946 5.56415L4.45979 5.38954H4.16268L4.0709 5.1072L3.97951 5.38954H3.6824ZM5.23796 5.38954L5.47829 5.56415L5.38651 5.84609L5.62646 5.67187L5.86679 5.84609L5.77501 5.56415L6.01534 5.38954H5.71823L5.62646 5.1072L5.53507 5.38954H5.23796Z" fill="white"/>
</svg>
