<svg width="21" height="21" viewBox="0 0 21 21" fill="none" xmlns="http://www.w3.org/2000/svg">
<path d="M2.23206 4.26004V17.1947C2.23206 19.0144 3.70943 20.4918 5.52913 20.4918H17.7029C19.5226 20.4918 21 19.0144 21 17.1947V8.57159C21.0003 7.0435 19.9506 5.71542 18.4638 5.36278V4.51366C18.4638 3.25302 17.4418 2.23107 16.1812 2.23107H4.51465C3.35218 2.23111 2.37543 3.10477 2.24626 4.26004H2.23206ZM4.51465 5.27452C4.09472 5.27452 3.75379 4.93359 3.75379 4.51366C3.75379 4.09373 4.09472 3.7528 4.51465 3.7528H16.1812C16.6011 3.7528 16.9421 4.09373 16.9421 4.51366V5.27452H4.51465ZM15.674 12.3759H17.7029C18.1229 12.3759 18.4638 12.7168 18.4638 13.1368C18.4638 13.5567 18.1229 13.8976 17.7029 13.8976H15.674C15.254 13.8976 14.9131 13.5567 14.9131 13.1368C14.9131 12.7168 15.254 12.3759 15.674 12.3759Z" fill="#9CA3AF"/>
</svg>
