<svg width="18" height="18" viewBox="0 0 18 18" fill="none" xmlns="http://www.w3.org/2000/svg">
<path d="M9.00133 16.5085C13.1435 16.5085 16.5015 13.1506 16.5015 9.00832C16.5015 4.86609 13.1435 1.50816 9.00133 1.50816C4.8591 1.50816 1.50117 4.86609 1.50117 9.00832C1.50117 13.1506 4.8591 16.5085 9.00133 16.5085Z" fill="#A5AABD"/>
<path d="M9.001 5.20364C7.44846 5.20364 6.18844 6.46367 6.18844 8.01617C6.18844 9.53871 7.38096 10.7762 8.9635 10.8212C8.986 10.8212 9.016 10.8212 9.031 10.8212C9.046 10.8212 9.0685 10.8212 9.0835 10.8212C9.091 10.8212 9.0985 10.8212 9.0985 10.8212C10.6135 10.7687 11.8061 9.53871 11.8136 8.01617C11.8136 6.46367 10.5535 5.20364 9.001 5.20364Z" fill="white"/>
<path d="M14.0874 13.7704C12.7524 15.0004 10.9674 15.758 9.00233 15.758C7.03728 15.758 5.25224 15.0004 3.91721 13.7704C4.09722 13.0879 4.58473 12.4654 5.29724 11.9854C7.34479 10.6203 10.6749 10.6203 12.7074 11.9854C13.4274 12.4654 13.9074 13.0879 14.0874 13.7704Z" fill="white"/>
</svg>
