<svg width="46" height="46" viewBox="0 0 46 46" fill="none" xmlns="http://www.w3.org/2000/svg">
<rect width="45.9999" height="45.9999" rx="11.3667" fill="#7E7E7E" fill-opacity="0.1"/>
<g clip-path="url(#clip0_1034_3343)">
<path d="M22.9995 34.5004C29.3507 34.5004 34.4994 29.3517 34.4994 23.0005C34.4994 16.6492 29.3507 11.5005 22.9995 11.5005C16.6482 11.5005 11.4995 16.6492 11.4995 23.0005C11.4995 29.3517 16.6482 34.5004 22.9995 34.5004Z" fill="#CFCFCF"/>
<path d="M22.8209 14.3746C18.1562 14.3746 14.3756 18.1552 14.3756 22.8199C14.3756 27.4846 18.1562 31.2652 22.8209 31.2652C27.4856 31.2652 31.2662 27.4846 31.2662 22.8199C31.2662 20.5801 30.3764 18.432 28.7926 16.8482C27.2088 15.2644 25.0607 14.3746 22.8209 14.3746ZM22.8209 29.1593C21.1396 29.1593 19.5272 28.4914 18.3383 27.3025C17.1494 26.1137 16.4815 24.5012 16.4815 22.8199C16.4815 21.1386 17.1494 19.5262 18.3383 18.3373C19.5272 17.1485 21.1396 16.4806 22.8209 16.4806C24.5022 16.4806 26.1146 17.1485 27.3035 18.3373C28.4924 19.5262 29.1603 21.1386 29.1603 22.8199C29.1603 24.5012 28.4924 26.1137 27.3035 27.3025C26.1146 28.4914 24.5022 29.1593 22.8209 29.1593ZM20.715 22.8271L22.8281 25.9896L24.9268 22.8271L22.8281 19.6574L20.715 22.8271Z" fill="white"/>
</g>
<defs>
<clipPath id="clip0_1034_3343">
<rect width="22.7333" height="22.7333" fill="white" transform="translate(11.4995 11.5005) scale(1.01173)"/>
</clipPath>
</defs>
</svg>
