<svg width="251" height="153" viewBox="0 0 251 153" fill="none" xmlns="http://www.w3.org/2000/svg">
<mask id="path-1-inside-1_1034_3207" fill="white">
<path d="M146.417 0C152.565 0.000237015 157.572 4.87906 157.782 10.9765H239.257C245.742 10.9765 251 16.2341 251 22.7193V129.973C251 136.458 245.743 141.716 239.257 141.716H210.632C210.594 147.764 205.682 152.655 199.625 152.655H51.374C45.3172 152.655 40.4045 147.764 40.3672 141.716H11.7428C5.25746 141.716 0 136.458 0 129.973V22.7193C0.000127166 16.2341 5.25754 10.9765 11.7428 10.9765H91.749C91.9594 4.87907 96.9658 0.000256651 103.114 0H146.417Z"/>
</mask>
<path d="M146.417 0C152.565 0.000237015 157.572 4.87906 157.782 10.9765H239.257C245.742 10.9765 251 16.2341 251 22.7193V129.973C251 136.458 245.743 141.716 239.257 141.716H210.632C210.594 147.764 205.682 152.655 199.625 152.655H51.374C45.3172 152.655 40.4045 147.764 40.3672 141.716H11.7428C5.25746 141.716 0 136.458 0 129.973V22.7193C0.000127166 16.2341 5.25754 10.9765 11.7428 10.9765H91.749C91.9594 4.87907 96.9658 0.000256651 103.114 0H146.417Z" fill="white"/>
<path d="M146.417 0L146.417 -0.733919H146.417V0ZM157.782 10.9765L157.049 11.0018L157.073 11.7104H157.782V10.9765ZM251 22.7193H251.734V22.7193L251 22.7193ZM210.632 141.716V140.982H209.902L209.898 141.711L210.632 141.716ZM40.3672 141.716L41.1011 141.711L41.0966 140.982H40.3672V141.716ZM11.7428 141.716L11.7428 142.449H11.7428V141.716ZM0 22.7193L-0.733919 22.7193V22.7193H0ZM11.7428 10.9765V10.2426H11.7428L11.7428 10.9765ZM91.749 10.9765V11.7104H92.458L92.4824 11.0018L91.749 10.9765ZM103.114 0V-0.733919H103.114L103.114 0ZM146.417 0L146.417 0.733919C152.168 0.73414 156.852 5.29796 157.049 11.0018L157.782 10.9765L158.516 10.9512C158.292 4.46015 152.962 -0.733666 146.417 -0.733919L146.417 0ZM157.782 10.9765V11.7104H239.257V10.9765V10.2426H157.782V10.9765ZM239.257 10.9765V11.7104C245.337 11.7104 250.266 16.6394 250.266 22.7193L251 22.7193L251.734 22.7193C251.734 15.8288 246.148 10.2426 239.257 10.2426V10.9765ZM251 22.7193H250.266V129.973H251H251.734V22.7193H251ZM251 129.973H250.266C250.266 136.053 245.337 140.982 239.257 140.982V141.716V142.449C246.148 142.449 251.734 136.863 251.734 129.973H251ZM239.257 141.716V140.982H210.632V141.716V142.449H239.257V141.716ZM210.632 141.716L209.898 141.711C209.863 147.356 205.278 151.921 199.625 151.921V152.655V153.389C206.086 153.389 211.326 148.171 211.366 141.72L210.632 141.716ZM199.625 152.655V151.921H51.374V152.655V153.389H199.625V152.655ZM51.374 152.655V151.921C45.7211 151.921 41.1359 147.356 41.1011 141.711L40.3672 141.716L39.6333 141.72C39.6731 148.171 44.9132 153.389 51.374 153.389V152.655ZM40.3672 141.716V140.982H11.7428V141.716V142.449H40.3672V141.716ZM11.7428 141.716L11.7428 140.982C5.66279 140.982 0.733919 136.053 0.733919 129.973H0H-0.733919C-0.733919 136.863 4.85213 142.449 11.7428 142.449L11.7428 141.716ZM0 129.973H0.733919V22.7193H0H-0.733919V129.973H0ZM0 22.7193L0.733919 22.7193C0.734038 16.6394 5.66289 11.7105 11.7428 11.7104L11.7428 10.9765L11.7428 10.2426C4.8522 10.2426 -0.733784 15.8288 -0.733919 22.7193L0 22.7193ZM11.7428 10.9765V11.7104H91.749V10.9765V10.2426H11.7428V10.9765ZM91.749 10.9765L92.4824 11.0018C92.6793 5.29798 97.3629 0.734159 103.115 0.733919L103.114 0L103.114 -0.733919C96.5686 -0.733645 91.2395 4.46016 91.0155 10.9512L91.749 10.9765ZM103.114 0V0.733919H146.417V0V-0.733919H103.114V0Z" fill="#F3BA2F" mask="url(#path-1-inside-1_1034_3207)"/>
</svg>
